<svg width="120" height="120" viewBox="0 0 120 120" fill="none" xmlns="http://www.w3.org/2000/svg">
<mask id="mask0_3947_156" style="mask-type:alpha" maskUnits="userSpaceOnUse" x="-1" y="0" width="121" height="109">
<path d="M24.7319 108.541C14.4811 101.093 6.85111 90.5916 2.93563 78.541C-0.979846 66.4904 -0.979846 53.5096 2.93563 41.459C6.85111 29.4084 14.4811 18.9067 24.7319 11.459C34.9828 4.0113 47.3283 -1.51097e-07 59.999 0C72.6698 1.51097e-07 85.0153 4.0113 95.2661 11.459C105.517 18.9067 113.147 29.4084 117.062 41.459C120.978 53.5096 120.978 66.4904 117.062 78.541C113.147 90.5916 105.517 101.093 95.2661 108.541L88.2127 98.8328C96.4134 92.8747 102.517 84.4733 105.65 74.8328C108.782 65.1923 108.782 54.8077 105.65 45.1672C102.517 35.5267 96.4134 27.1253 88.2127 21.1672C80.012 15.209 70.1356 12 59.999 12C49.8624 12 39.986 15.209 31.7853 21.1672C23.5846 27.1253 17.4807 35.5267 14.3483 45.1672C11.2159 54.8077 11.2159 65.1923 14.3483 74.8328C17.4807 84.4733 23.5846 92.8747 31.7853 98.8328L24.7319 108.541Z" fill="white"/>
</mask>
<g mask="url(#mask0_3947_156)">
<path d="M-3.56908 37.9839C-8.47366 52.2341 -8.47357 67.7149 -3.56883 81.965C1.3359 96.2151 10.8637 108.416 23.4998 116.629L60.3229 59.9741L-3.56908 37.9839Z" fill="#FF0000"/>
<path d="M-3.5803 37.9775C1.14541 24.5133 10.0123 12.8908 21.7495 4.77567C33.4868 -3.33942 47.4918 -7.53042 61.7574 -7.19668L60.177 60.3552L-3.5803 37.9775Z" fill="url(#paint0_linear_3947_156)"/>
<path d="M124.728 40.6063C120.637 26.9359 112.323 14.9118 100.977 6.25713C89.632 -2.39751 75.8381 -7.23832 61.5725 -7.57151L59.9948 59.9804L124.728 40.6063Z" fill="url(#paint1_linear_3947_156)"/>
<path d="M94.6336 117.869C107.492 110.1 117.394 98.2674 122.775 84.2415C128.157 70.2156 128.711 54.7962 124.35 40.4202L59.6893 60.0361L94.6336 117.869Z" fill="url(#paint2_linear_3947_156)"/>
</g>
<defs>
<linearGradient id="paint0_linear_3947_156" x1="61.2608" y1="6.50699" x2="9.36647" y2="42.4771" gradientUnits="userSpaceOnUse">
<stop stop-color="#FFA700"/>
<stop offset="1" stop-color="#996400"/>
</linearGradient>
<linearGradient id="paint1_linear_3947_156" x1="111.844" y1="44.1627" x2="61.2614" y2="6.69383" gradientUnits="userSpaceOnUse">
<stop stop-color="#FFF400"/>
<stop offset="1" stop-color="#999200"/>
</linearGradient>
<linearGradient id="paint2_linear_3947_156" x1="112.968" y1="44.1635" x2="91.9858" y2="104.114" gradientUnits="userSpaceOnUse">
<stop stop-color="#2CBA00"/>
<stop offset="1" stop-color="#145400"/>
</linearGradient>
</defs>
</svg>
