<svg width="24" height="24" viewBox="0 0 24 24" fill="none" xmlns="http://www.w3.org/2000/svg">
<g clip-path="url(#clip0_3459_2145)">
<path d="M21.8286 0.950195H2.17114C1.84791 0.950195 1.53792 1.0786 1.30936 1.30716C1.0808 1.53572 0.952393 1.84571 0.952393 2.16895V21.8283C0.952393 22.1516 1.0808 22.4615 1.30936 22.6901C1.53792 22.9187 1.84791 23.0471 2.17114 23.0471H12.7499V14.4914H9.87364V11.1558H12.7499V8.69582C12.7499 5.84207 14.4936 4.2877 17.0399 4.2877C17.8991 4.28463 18.7579 4.32845 19.6124 4.41895V7.40207H17.8518C16.4661 7.40207 16.198 8.06019 16.198 9.02582V11.1558H19.4999L19.0705 14.4914H16.198V23.0489H21.823C22.1461 23.0484 22.4558 22.9199 22.6843 22.6914C22.9127 22.463 23.0413 22.1533 23.0418 21.8302V2.17082C23.0423 1.84824 22.9149 1.53861 22.6875 1.30981C22.4601 1.081 22.1512 0.951684 21.8286 0.950195Z" fill="#424752"/>
</g>
<defs>
<clipPath id="clip0_3459_2145">
<rect width="24" height="24" fill="white"/>
</clipPath>
</defs>
</svg>
