<svg width="24" height="24" viewBox="0 0 24 24" fill="none" xmlns="http://www.w3.org/2000/svg">
<g clip-path="url(#clip0_3459_2147)">
<path d="M21.872 0.905273H2.13014C1.45393 0.905273 0.905762 1.45344 0.905762 2.12965V21.8715C0.905762 22.5477 1.45393 23.0959 2.13014 23.0959H21.872C22.5482 23.0959 23.0964 22.5477 23.0964 21.8715V2.12965C23.0964 1.45344 22.5482 0.905273 21.872 0.905273Z" fill="#3D5A98"/>
<path d="M16.215 23.0943V14.5012H19.0987L19.53 11.1524H16.215V9.01492C16.215 8.04555 16.485 7.38367 17.8743 7.38367H19.6481V4.38367C18.7892 4.29432 17.926 4.25176 17.0625 4.25617C14.5087 4.25617 12.75 5.81242 12.75 8.68305V11.1524H9.86621V14.5012H12.75V23.0943H16.215Z" fill="white"/>
</g>
<defs>
<clipPath id="clip0_3459_2147">
<rect width="24" height="24" fill="white"/>
</clipPath>
</defs>
</svg>
