<svg width="140" height="140" viewBox="0 0 140 140" fill="none" xmlns="http://www.w3.org/2000/svg">
<rect width="140" height="140" rx="70" fill="#BED7FF"/>
<path d="M109 43H94V37.75C94 37.3375 93.6625 37 93.25 37H88C87.5875 37 87.25 37.3375 87.25 37.75V43H73.375V37.75C73.375 37.3375 73.0375 37 72.625 37H67.375C66.9625 37 66.625 37.3375 66.625 37.75V43H52.75V37.75C52.75 37.3375 52.4125 37 52 37H46.75C46.3375 37 46 37.3375 46 37.75V43H31C29.3406 43 28 44.3406 28 46V100C28 101.659 29.3406 103 31 103H109C110.659 103 112 101.659 112 100V46C112 44.3406 110.659 43 109 43ZM105.25 96.25H34.75V49.75H46V55C46 55.4125 46.3375 55.75 46.75 55.75H52C52.4125 55.75 52.75 55.4125 52.75 55V49.75H66.625V55C66.625 55.4125 66.9625 55.75 67.375 55.75H72.625C73.0375 55.75 73.375 55.4125 73.375 55V49.75H87.25V55C87.25 55.4125 87.5875 55.75 88 55.75H93.25C93.6625 55.75 94 55.4125 94 55V49.75H105.25V96.25ZM61 68.5H43.75C43.3375 68.5 43 68.8375 43 69.25V73.75C43 74.1625 43.3375 74.5 43.75 74.5H61C61.4125 74.5 61.75 74.1625 61.75 73.75V69.25C61.75 68.8375 61.4125 68.5 61 68.5ZM61 81.25H43.75C43.3375 81.25 43 81.5875 43 82V86.5C43 86.9125 43.3375 87.25 43.75 87.25H61C61.4125 87.25 61.75 86.9125 61.75 86.5V82C61.75 81.5875 61.4125 81.25 61 81.25ZM89.8938 64.6188L80.1812 78.0906L75.2312 71.2375C74.95 70.8438 74.5 70.6187 74.0219 70.6187H68.875C68.2656 70.6187 67.9094 71.3125 68.2656 71.8094L78.9625 86.6406C79.1006 86.8323 79.2823 86.9884 79.4925 87.096C79.7028 87.2037 79.9356 87.2598 80.1719 87.2598C80.4081 87.2598 80.6409 87.2037 80.8512 87.096C81.0615 86.9884 81.2432 86.8323 81.3813 86.6406L96.85 65.2C97.2063 64.7031 96.85 64.0094 96.2406 64.0094H91.0938C90.625 64 90.175 64.2344 89.8938 64.6188Z" fill="#224167"/>
</svg>
