<svg width="140" height="140" viewBox="0 0 140 140" fill="none" xmlns="http://www.w3.org/2000/svg">
<rect width="140" height="140" rx="70" fill="#BED7FF"/>
<path d="M89.2008 35.2001C89.2008 34.2453 89.5801 33.3296 90.2552 32.6545C90.9304 31.9794 91.8461 31.6001 92.8008 31.6001H104.801C105.756 31.6001 106.671 31.9794 107.346 32.6545C108.022 33.3296 108.401 34.2453 108.401 35.2001V47.2001C108.401 48.1549 108.022 49.0706 107.346 49.7457C106.671 50.4208 105.756 50.8001 104.801 50.8001C103.846 50.8001 102.93 50.4208 102.255 49.7457C101.58 49.0706 101.201 48.1549 101.201 47.2001V43.8881L79.7448 65.3441C79.0698 66.0183 78.1548 66.3969 77.2008 66.3969C76.2468 66.3969 75.3318 66.0183 74.6568 65.3441L62.8008 53.4881L42.5448 73.7441C42.2153 74.0978 41.8178 74.3815 41.3762 74.5782C40.9346 74.775 40.4579 74.8808 39.9745 74.8893C39.4912 74.8979 39.011 74.8089 38.5628 74.6279C38.1145 74.4468 37.7073 74.1773 37.3655 73.8355C37.0236 73.4936 36.7541 73.0864 36.573 72.6382C36.392 72.1899 36.3031 71.7098 36.3116 71.2264C36.3201 70.743 36.4259 70.2663 36.6227 69.8247C36.8194 69.3831 37.1031 68.9857 37.4568 68.6561L60.2568 45.8561C60.9318 45.1819 61.8468 44.8033 62.8008 44.8033C63.7548 44.8033 64.6698 45.1819 65.3448 45.8561L77.2008 57.7121L96.1128 38.8001H92.8008C91.8461 38.8001 90.9304 38.4208 90.2552 37.7457C89.5801 37.0706 89.2008 36.1549 89.2008 35.2001ZM40.0008 89.2001C40.9556 89.2001 41.8713 89.5794 42.5464 90.2545C43.2216 90.9296 43.6008 91.8453 43.6008 92.8001V104.8C43.6008 105.755 43.2216 106.671 42.5464 107.346C41.8713 108.021 40.9556 108.4 40.0008 108.4C39.0461 108.4 38.1304 108.021 37.4553 107.346C36.7801 106.671 36.4008 105.755 36.4008 104.8V92.8001C36.4008 91.8453 36.7801 90.9296 37.4553 90.2545C38.1304 89.5794 39.0461 89.2001 40.0008 89.2001ZM62.8008 78.4001C62.8008 77.4453 62.4215 76.5296 61.7464 75.8545C61.0713 75.1794 60.1556 74.8001 59.2008 74.8001C58.2461 74.8001 57.3304 75.1794 56.6552 75.8545C55.9801 76.5296 55.6008 77.4453 55.6008 78.4001V104.8C55.6008 105.755 55.9801 106.671 56.6552 107.346C57.3304 108.021 58.2461 108.4 59.2008 108.4C60.1556 108.4 61.0713 108.021 61.7464 107.346C62.4215 106.671 62.8008 105.755 62.8008 104.8V78.4001ZM78.4008 84.4001C79.3556 84.4001 80.2713 84.7794 80.9464 85.4545C81.6215 86.1296 82.0008 87.0453 82.0008 88.0001V104.8C82.0008 105.755 81.6215 106.671 80.9464 107.346C80.2713 108.021 79.3556 108.4 78.4008 108.4C77.4461 108.4 76.5304 108.021 75.8553 107.346C75.1801 106.671 74.8008 105.755 74.8008 104.8V88.0001C74.8008 87.0453 75.1801 86.1296 75.8553 85.4545C76.5304 84.7794 77.4461 84.4001 78.4008 84.4001ZM101.201 68.8001C101.201 67.8453 100.822 66.9296 100.146 66.2545C99.4713 65.5794 98.5556 65.2001 97.6008 65.2001C96.6461 65.2001 95.7304 65.5794 95.0552 66.2545C94.3801 66.9296 94.0008 67.8453 94.0008 68.8001V104.8C94.0008 105.755 94.3801 106.671 95.0552 107.346C95.7304 108.021 96.6461 108.4 97.6008 108.4C98.5556 108.4 99.4713 108.021 100.146 107.346C100.822 106.671 101.201 105.755 101.201 104.8V68.8001Z" fill="#224167"/>
</svg>
