<svg width="140" height="140" viewBox="0 0 140 140" fill="none" xmlns="http://www.w3.org/2000/svg">
<rect width="140" height="140" rx="70" fill="#BED7FF"/>
<path fill-rule="evenodd" clip-rule="evenodd" d="M39.5006 33.9531C38.3396 33.4313 37.0189 33.392 35.8289 33.8439C34.6389 34.2958 33.6771 35.2018 33.155 36.3627L22.7726 59.4172C22.2502 60.577 22.2095 61.8968 22.6595 63.0866C23.1095 64.2764 24.0134 65.239 25.1726 65.7627L32.3246 68.9836C32.8992 69.243 33.5192 69.3867 34.1493 69.4065C34.7794 69.4263 35.4073 69.3218 35.997 69.0989C36.5867 68.876 37.1267 68.5392 37.5862 68.1076C38.0457 67.676 38.4157 67.1581 38.675 66.5835L49.0574 43.5243C49.5799 42.3645 49.6206 41.0447 49.1706 39.8549C48.7206 38.6651 47.8167 37.7025 46.6574 37.1787L39.5006 33.9531ZM30.9902 62.4076C31.3817 62.584 31.8041 62.6817 32.2333 62.695C32.6624 62.7082 33.09 62.6368 33.4916 62.4848C33.8932 62.3329 34.261 62.1033 34.5738 61.8091C34.8867 61.515 35.1385 61.1622 35.315 60.7707C35.4915 60.3793 35.5892 59.9569 35.6025 59.5277C35.6157 59.0986 35.5443 58.671 35.3923 58.2694C35.2403 57.8678 35.0107 57.5 34.7166 57.1872C34.4225 56.8743 34.0697 56.6224 33.6782 56.4459C32.8877 56.0895 31.9879 56.0617 31.1769 56.3687C30.3658 56.6756 29.7099 57.2922 29.3534 58.0828C28.997 58.8733 28.9692 59.7731 29.2761 60.5841C29.5831 61.3952 30.1997 62.0511 30.9902 62.4076ZM113.272 66.3916C113.861 66.1678 114.401 65.8302 114.86 65.3979C115.319 64.9657 115.688 64.4472 115.946 63.8722C116.205 63.2972 116.348 62.6769 116.366 62.0468C116.385 61.4166 116.28 60.7889 116.056 60.1996L107.104 36.5643C106.881 35.9745 106.543 35.4344 106.111 34.975C105.679 34.5156 105.161 34.1458 104.586 33.8868C104.011 33.6278 103.39 33.4847 102.76 33.4656C102.129 33.4465 101.502 33.5518 100.912 33.7755L93.5822 36.5547C92.9928 36.7785 92.4532 37.1161 91.9943 37.5484C91.5354 37.9806 91.1661 38.4991 90.9076 39.0741C90.6491 39.6491 90.5064 40.2694 90.4876 40.8995C90.4688 41.5297 90.5744 42.1574 90.7982 42.7467L99.755 66.3867C100.206 67.5769 101.111 68.5392 102.271 69.0621C103.431 69.5851 104.752 69.6259 105.942 69.1755L113.272 66.3916ZM99.1742 40.2555C98.7727 40.4078 98.4051 40.6376 98.0924 40.9319C97.7797 41.2262 97.528 41.5792 97.3517 41.9708C97.1754 42.3623 97.078 42.7848 97.065 43.214C97.052 43.6432 97.1236 44.0708 97.2758 44.4723C97.4281 44.8739 97.6579 45.2415 97.9522 45.5542C98.2465 45.8669 98.5995 46.1186 98.9911 46.2949C99.3826 46.4712 99.8051 46.5686 100.234 46.5816C100.664 46.5946 101.091 46.523 101.493 46.3707C102.304 46.0633 102.959 45.4463 103.315 44.6555C103.671 43.8647 103.698 42.9649 103.391 42.1539C103.084 41.343 102.467 40.6874 101.676 40.3314C100.885 39.9754 99.9852 39.9481 99.1742 40.2555Z" fill="#224167"/>
<path fill-rule="evenodd" clip-rule="evenodd" d="M93.4484 41.7151H93.4868C93.8011 41.6877 94.1068 41.5986 94.3866 41.4531C94.6664 41.3075 94.9148 41.1082 95.1176 40.8666C95.3204 40.625 95.4737 40.3459 95.5686 40.0451C95.6635 39.7443 95.6982 39.4277 95.6708 39.1135C95.6434 38.7993 95.5544 38.4935 95.4088 38.2137C95.2632 37.9339 95.0639 37.6855 94.8223 37.4827C94.5808 37.2799 94.3016 37.1267 94.0008 37.0317C93.7 36.9368 93.3835 36.9021 93.0692 36.9295H93.0308L92.906 36.9439L92.4404 36.9919L90.746 37.1551C89.3204 37.2991 87.3476 37.5247 85.1684 37.8127C80.8724 38.3791 75.5492 39.2431 72.0644 40.4047C70.3748 40.9663 68.5892 42.0559 66.8804 43.3039C65.1476 44.5711 63.3524 46.1119 61.634 47.7103C58.5842 50.5869 55.6706 53.6046 52.9028 56.7535C50.8916 59.0287 50.426 62.6575 52.7876 65.2303C54.3236 66.8911 56.7236 68.9935 59.834 69.9343C63.0836 70.9087 66.8276 70.5295 70.6532 67.6879L75.4484 64.5919L75.5348 64.5391C76.2212 64.9567 77.1764 65.6767 78.3188 66.6319C79.5668 67.6783 80.9204 68.9119 82.1828 70.0975C83.6156 71.4479 85.0238 72.8241 86.4068 74.2255L86.6708 74.4991L86.738 74.5663L86.762 74.5903L87.0452 74.8783L87.4052 75.0655C89.3396 76.0255 91.466 75.6799 93.1172 75.1231C94.8356 74.5471 96.5444 73.5679 97.9988 72.6031C99.8199 71.3778 101.545 70.0154 103.159 68.5279L103.245 68.4511L103.269 68.4271L103.274 68.4223C103.274 68.4223 102.852 66.9343 101.2 65.1967L99.8996 66.8287L98.8004 70.0015L86.762 74.5903L89.2004 72.4015L87.914 68.9599C87.1094 68.1675 86.2965 67.3834 85.4756 66.6079C84.1796 65.3887 82.7492 64.0879 81.3956 62.9599C80.0852 61.8559 78.722 60.8095 77.5844 60.1855C75.6932 59.1487 73.8404 59.9167 72.842 60.5647L67.9076 63.7519L67.8404 63.7999C65.1764 65.7967 62.9876 65.8735 61.2164 65.3407C59.2964 64.7647 57.5924 63.3631 56.3204 61.9807C55.922 61.5487 55.8068 60.7183 56.498 59.9359C59.1624 56.9026 61.9671 53.9954 64.9028 51.2239C66.5396 49.7023 68.1812 48.2959 69.7124 47.1775C71.2772 46.0351 72.5924 45.2911 73.586 44.9599C76.5812 43.9615 81.482 43.1407 85.7972 42.5695C88.157 42.2594 90.5222 41.9922 92.8916 41.7679L93.338 41.7247L93.4484 41.7151Z" fill="#224167"/>
<path d="M89.8107 70.8512C89.1837 70.2158 88.5517 69.5853 87.9147 68.96L89.2011 72.4016L86.7627 74.5952L98.8011 70.0016L99.9003 66.8336L101.201 65.2016L99.9771 64.9424L99.9627 64.952L99.8955 65.0144L99.6363 65.2544C98.2856 66.4731 96.85 67.5944 95.3403 68.6096C94.0443 69.4736 92.7339 70.1936 91.5819 70.5776C90.6891 70.88 90.1323 70.904 89.8107 70.8512Z" fill="#224167"/>
<path fill-rule="evenodd" clip-rule="evenodd" d="M46.2243 46.3285L45.2787 44.1205L44.3331 41.9125L44.5251 41.8357L45.0675 41.6053C47.7287 40.4754 50.4009 39.3713 53.0835 38.2933C55.2623 37.4142 57.458 36.5772 59.6691 35.7829C60.6435 35.4373 61.5507 35.1397 62.3091 34.9237C62.9619 34.7317 63.7971 34.5205 64.4787 34.5205C65.1027 34.5205 65.7603 34.6645 66.3027 34.8085C66.8883 34.9669 67.5315 35.1781 68.1843 35.4181C69.4995 35.8981 70.9827 36.5221 72.3555 37.1269C73.9567 37.8424 75.5442 38.5882 77.1171 39.3637L77.4339 39.5173L77.5203 39.5605L77.5491 39.5749C78.1188 39.8594 78.5521 40.3586 78.7538 40.9626C78.9554 41.5666 78.9088 42.226 78.6243 42.7957C78.3398 43.3654 77.8406 43.7987 77.2366 44.0004C76.6326 44.202 75.9732 44.1554 75.4035 43.8709L75.3795 43.8565L75.3027 43.8181L75.0051 43.6741C73.484 42.9261 71.9493 42.206 70.4019 41.5141C69.1351 40.9433 67.8496 40.415 66.5475 39.9301C66.0598 39.7501 65.565 39.59 65.0643 39.4501C64.8766 39.3969 64.6859 39.3553 64.4931 39.3253L64.4499 39.3349C64.3539 39.3493 64.0995 39.4021 63.6243 39.5365C62.8299 39.7714 62.0423 40.0291 61.2627 40.3093C59.4003 40.9669 57.1107 41.8549 54.8691 42.7525C52.2164 43.815 49.5747 44.9046 46.9443 46.0213L46.4115 46.2469L46.2243 46.3285ZM43.0707 45.0661C42.8209 44.4811 42.8135 43.8209 43.0502 43.2304C43.2869 42.64 43.7484 42.1677 44.3331 41.9173L45.2787 44.1253L46.2243 46.3285C45.9344 46.453 45.6228 46.519 45.3073 46.5229C44.9918 46.5268 44.6787 46.4684 44.3858 46.3512C44.0929 46.2339 43.8259 46.0601 43.6003 45.8396C43.3746 45.6191 43.1947 45.3562 43.0707 45.0661ZM33.9363 64.0741C34.1528 63.8449 34.4123 63.6606 34.7 63.5317C34.9878 63.4029 35.2981 63.3319 35.6132 63.323C35.9284 63.3141 36.2422 63.3674 36.5367 63.4798C36.8313 63.5922 37.1008 63.7615 37.3299 63.9781L35.6787 65.7205L34.0323 67.4677C33.8031 67.2512 33.6188 66.9917 33.4899 66.704C33.3611 66.4162 33.2901 66.1059 33.2812 65.7908C33.2723 65.4757 33.3256 65.1618 33.438 64.8673C33.5504 64.5727 33.7197 64.3032 33.9363 64.0741ZM55.8723 80.3317L69.1347 85.3045C70.429 85.7895 71.8355 85.8917 73.1863 85.5989C74.5371 85.3061 75.775 84.6307 76.7523 83.6533L86.7843 73.6213C87.235 73.1713 87.8459 72.9187 88.4828 72.9192C89.1197 72.9196 89.7303 73.1731 90.1803 73.6237C90.6303 74.0744 90.8829 74.6853 90.8825 75.3222C90.882 75.9591 90.6286 76.5697 90.1779 77.0197L80.1459 87.0517C78.5164 88.6795 76.4528 89.804 74.2015 90.2909C71.9503 90.7777 69.6064 90.6064 67.4499 89.7973L53.9139 84.7237L53.8035 84.6709C53.0696 84.2653 52.3726 83.7963 51.7203 83.2693C50.9427 82.6693 50.0307 81.9253 49.0467 81.0853C46.8436 79.2016 44.6705 77.2829 42.5283 75.3301C39.9108 72.9526 37.314 70.5525 34.7379 68.1301L34.2147 67.6405L34.0323 67.4677L35.6787 65.7205L37.3299 63.9781L37.5075 64.1461L38.0211 64.6309C40.5773 67.0331 43.1534 69.4139 45.7491 71.7733C47.9571 73.7749 50.2371 75.8053 52.1475 77.4277C53.1075 78.2389 53.9571 78.9301 54.6435 79.4629C55.2771 79.9477 55.6755 80.2165 55.8723 80.3269M39.6147 90.5845C40.0228 90.098 40.607 89.7929 41.2394 89.7362C41.8719 89.6796 42.5011 89.8759 42.9891 90.2821L47.5923 94.1221C48.6239 94.9833 49.8759 95.5387 51.2067 95.7253L57.1395 96.5605C57.4587 96.5955 57.7676 96.6942 58.0479 96.8507C58.3283 97.0073 58.5743 97.2185 58.7716 97.4718C58.9688 97.7252 59.1133 98.0155 59.1963 98.3257C59.2793 98.6359 59.2992 98.9595 59.2549 99.2775C59.2106 99.5956 59.1029 99.9014 58.9382 100.177C58.7735 100.453 58.5552 100.693 58.2962 100.882C58.0372 101.072 57.7427 101.208 57.4303 101.282C57.1178 101.356 56.7937 101.366 56.4771 101.313L50.5395 100.482C48.3213 100.171 46.2346 99.2445 44.5155 97.8085L39.9123 93.9685C39.67 93.7664 39.4699 93.5184 39.3235 93.2388C39.1772 92.9592 39.0874 92.6535 39.0593 92.3392C39.0312 92.0249 39.0654 91.7081 39.1599 91.407C39.2543 91.1059 39.4073 90.8264 39.6099 90.5845" fill="#224167"/>
</svg>
