<svg width="56" height="56" viewBox="0 0 56 56" fill="none" xmlns="http://www.w3.org/2000/svg">
<rect width="56" height="56" rx="28" fill="#314364"/>
<path d="M36.1875 42.3243L32.8691 39.0059L31.0625 40.8124L36.1875 45.9374L46.4375 35.6874L44.6309 33.8809L36.1875 42.3243Z" fill="#CBDBFF"/>
<path d="M40.0312 13.9062H36.1875V12.625C36.1855 11.946 35.9148 11.2954 35.4347 10.8153C34.9546 10.3352 34.304 10.0645 33.625 10.0625H23.375C22.696 10.0645 22.0454 10.3352 21.5653 10.8153C21.0852 11.2954 20.8145 11.946 20.8125 12.625V13.9062H16.9688C16.2898 13.9083 15.6392 14.1789 15.159 14.659C14.6789 15.1392 14.4083 15.7898 14.4062 16.4688V43.375C14.4083 44.054 14.6789 44.7046 15.159 45.1847C15.6392 45.6648 16.2898 45.9355 16.9688 45.9375H28.5V43.375H16.9688V16.4688H20.8125V20.3125H36.1875V16.4688H40.0312V30.5625H42.5938V16.4688C42.5917 15.7898 42.3211 15.1392 41.841 14.659C41.3608 14.1789 40.7102 13.9083 40.0312 13.9062ZM33.625 17.75H23.375V12.625H33.625V17.75Z" fill="#CBDBFF"/>
</svg>
