<svg width="56" height="56" viewBox="0 0 56 56" fill="none" xmlns="http://www.w3.org/2000/svg">
<rect width="56" height="56" rx="28" fill="#406926"/>
<path d="M16.5715 31.333C15.321 29.2851 14.6616 26.9309 14.6665 24.5313C14.6665 17.2413 20.6365 11.333 27.9999 11.333C35.3632 11.333 41.3332 17.2413 41.3332 24.5313C41.3381 26.9309 40.6788 29.2851 39.4282 31.333M32.9999 39.6663L32.7832 40.7447C32.5499 41.923 32.4315 42.5113 32.1665 42.978C31.7582 43.6973 31.097 44.239 30.3115 44.498C29.8032 44.6663 29.1999 44.6663 27.9999 44.6663C26.7999 44.6663 26.1965 44.6663 25.6882 44.4997C24.9024 44.2403 24.2412 43.6979 23.8332 42.978C23.5682 42.5113 23.4499 41.923 23.2165 40.7447L22.9999 39.6663M20.3049 36.4963C20.1515 36.0363 20.0749 35.8047 20.0832 35.618C20.0926 35.425 20.1578 35.2389 20.2708 35.0821C20.3838 34.9253 20.5397 34.8047 20.7199 34.7347C20.8932 34.6663 21.1365 34.6663 21.6199 34.6663H34.3799C34.8649 34.6663 35.1065 34.6663 35.2799 34.733C35.4602 34.8031 35.6164 34.924 35.7294 35.0811C35.8424 35.2382 35.9074 35.4247 35.9165 35.618C35.9249 35.8047 35.8482 36.0347 35.6949 36.4963C35.4115 37.348 35.2699 37.7747 35.0515 38.1197C34.5949 38.8407 33.879 39.3591 33.0515 39.568C32.6549 39.6663 32.2082 39.6663 31.3132 39.6663H24.6865C23.7915 39.6663 23.3432 39.6663 22.9482 39.5663C22.121 39.3578 21.4052 38.8401 20.9482 38.1197C20.7299 37.7747 20.5882 37.348 20.3049 36.4963Z" stroke="white" stroke-width="2.5" stroke-linecap="round" stroke-linejoin="round"/>
<path d="M21.75 24.25L25.5 28V34.6667M34.25 24.25L30.5 28V34.6667M21.75 25.5C22.0815 25.5 22.3995 25.3683 22.6339 25.1339C22.8683 24.8995 23 24.5815 23 24.25C23 23.9185 22.8683 23.6005 22.6339 23.3661C22.3995 23.1317 22.0815 23 21.75 23C21.4185 23 21.1005 23.1317 20.8661 23.3661C20.6317 23.6005 20.5 23.9185 20.5 24.25C20.5 24.5815 20.6317 24.8995 20.8661 25.1339C21.1005 25.3683 21.4185 25.5 21.75 25.5ZM34.25 25.5C33.9185 25.5 33.6005 25.3683 33.3661 25.1339C33.1317 24.8995 33 24.5815 33 24.25C33 23.9185 33.1317 23.6005 33.3661 23.3661C33.6005 23.1317 33.9185 23 34.25 23C34.5815 23 34.8995 23.1317 35.1339 23.3661C35.3683 23.6005 35.5 23.9185 35.5 24.25C35.5 24.5815 35.3683 24.8995 35.1339 25.1339C34.8995 25.3683 34.5815 25.5 34.25 25.5Z" stroke="white" stroke-width="2.5" stroke-linecap="round" stroke-linejoin="round"/>
</svg>
