<svg width="24" height="24" viewBox="0 0 24 24" fill="none" xmlns="http://www.w3.org/2000/svg">
<g clip-path="url(#clip0_3585_576)">
<path d="M7.03009 0.0842537C5.75309 0.144254 4.88109 0.348254 4.12009 0.647254C3.31981 0.950405 2.59505 1.42402 1.99609 2.03525C1.38739 2.63587 0.916516 3.36162 0.616094 4.16225C0.321094 4.92625 0.120094 5.80025 0.0640943 7.07625C0.00809427 8.35225 -0.00490573 8.76425 0.00109427 12.0233C0.00709427 15.2823 0.0220943 15.6903 0.0840943 16.9703C0.145094 18.2473 0.348094 19.1193 0.647094 19.8813C0.955094 20.6703 1.36709 21.3383 2.03509 22.0043C2.63629 22.6132 3.36275 23.0841 4.16409 23.3843C4.92709 23.6793 5.80009 23.8803 7.07709 23.9363C8.35509 23.9923 8.76609 24.0053 12.0241 23.9993C15.2821 23.9933 15.6921 23.9783 16.9711 23.9173C18.2511 23.8573 19.1181 23.6523 19.8811 23.3543C20.681 23.051 21.4054 22.5774 22.0041 21.9663C22.613 21.3651 23.0839 20.6386 23.3841 19.8373C23.6791 19.0743 23.8801 18.2013 23.9351 16.9253C23.9911 15.6453 24.0051 15.2353 23.9981 11.9773C23.9921 8.71925 23.9781 8.31025 23.9171 7.03025C23.8571 5.75025 23.6531 4.88225 23.3531 4.11925C23.0501 3.31942 22.5768 2.59502 21.9661 1.99625C21.3652 1.38743 20.6391 0.916547 19.8381 0.616254C19.0741 0.322254 18.2021 0.120254 16.9241 0.0662537C15.6471 0.00925368 15.2361 -0.00574632 11.9771 0.000253682C8.71809 0.00625368 8.31009 0.0212537 7.03009 0.0842537ZM7.17009 21.7773C6.00009 21.7273 5.36509 21.5323 4.94209 21.3693C4.42005 21.1785 3.94769 20.8726 3.56009 20.4743C3.16044 20.0883 2.85283 19.6173 2.66009 19.0963C2.49509 18.6733 2.29709 18.0383 2.24309 16.8683C2.18309 15.6043 2.17109 15.2243 2.16309 12.0203C2.15709 8.81625 2.16909 8.43725 2.22409 7.17225C2.27409 6.00325 2.47009 5.36725 2.63209 4.94425C2.84809 4.38325 3.10909 3.98425 3.52709 3.56225C3.91332 3.16248 4.38466 2.85486 4.90609 2.66225C5.32909 2.49725 5.96309 2.30125 7.13309 2.24525C8.39809 2.18525 8.77709 2.17325 11.9811 2.16525C15.1841 2.15925 15.5641 2.17125 16.8311 2.22725C17.9991 2.27725 18.6351 2.47125 19.0581 2.63525C19.6181 2.85125 20.0181 3.11025 20.4401 3.53025C20.8621 3.95025 21.1211 4.34725 21.3401 4.90825C21.5051 5.33025 21.7021 5.96425 21.7571 7.13525C21.8171 8.40025 21.8311 8.78025 21.8371 11.9833C21.8421 15.1863 21.8311 15.5663 21.7761 16.8313C21.7251 18.0013 21.5311 18.6363 21.3681 19.0613C21.1521 19.6213 20.8911 20.0213 20.4721 20.4413C20.0862 20.8409 19.6152 21.1485 19.0941 21.3413C18.6721 21.5063 18.0361 21.7033 16.8681 21.7593C15.6021 21.8193 15.2231 21.8313 12.0181 21.8383C8.81309 21.8453 8.43609 21.8313 7.17009 21.7773ZM16.9531 5.58625C16.9535 5.8711 17.0384 6.14943 17.197 6.38604C17.3556 6.62265 17.5808 6.8069 17.8441 6.9155C18.1074 7.02409 18.3971 7.05215 18.6764 6.99612C18.9556 6.94008 19.212 6.80248 19.4131 6.60071C19.6142 6.39895 19.7509 6.14208 19.8059 5.86261C19.861 5.58313 19.8319 5.2936 19.7224 5.03065C19.6129 4.76769 19.4279 4.54312 19.1907 4.38534C18.9536 4.22756 18.6749 4.14366 18.3901 4.14425C18.0084 4.14505 17.6426 4.29739 17.3731 4.56779C17.1036 4.83819 16.9526 5.20451 16.9531 5.58625ZM5.83909 12.0123C5.84228 13.6464 6.49449 15.2123 7.65224 16.3656C8.81 17.5188 10.3785 18.1649 12.0126 18.1618C13.6467 18.1586 15.2127 17.5064 16.3659 16.3486C17.5192 15.1909 18.1653 13.6224 18.1621 11.9883C18.1385 10.3676 17.4774 8.82148 16.3219 7.68487C15.1664 6.54826 13.6096 5.91268 11.9887 5.91584C10.3679 5.919 8.81361 6.56063 7.66254 7.70174C6.51147 8.84284 5.85634 10.3915 5.83909 12.0123ZM8.00009 12.0083C7.99851 11.2171 8.23156 10.4433 8.66977 9.78463C9.10798 9.12596 9.73167 8.61202 10.462 8.30781C11.1923 8.0036 11.9964 7.92278 12.7726 8.07557C13.5488 8.22836 14.2623 8.60789 14.8229 9.16618C15.3834 9.72447 15.7658 10.4364 15.9217 11.2121C16.0776 11.9877 15.9999 12.7921 15.6987 13.5236C15.3974 14.2551 14.8859 14.8808 14.229 15.3217C13.5721 15.7625 12.7992 15.9987 12.0081 16.0003C11.4828 16.0013 10.9625 15.8989 10.4768 15.6988C9.99105 15.4988 9.5495 15.205 9.17732 14.8343C8.80514 14.4636 8.50962 14.0233 8.30764 13.5384C8.10565 13.0535 8.00114 12.5335 8.00009 12.0083Z" fill="#F9F9FF"/>
</g>
<defs>
<clipPath id="clip0_3585_576">
<rect width="24" height="24" fill="white"/>
</clipPath>
</defs>
</svg>
