<svg width="24" height="24" viewBox="0 0 24 24" fill="none" xmlns="http://www.w3.org/2000/svg">
<g clip-path="url(#clip0_3585_588)">
<path d="M4.70544 0.00585938C2.12023 0.00585938 0.00439453 2.12165 0.00439453 4.70691V19.2951C0.00439453 21.8803 2.12019 23.9954 4.70544 23.9954H19.2936C21.8789 23.9954 23.9939 21.8803 23.9939 19.2951V4.70691C23.9939 2.1217 21.8789 0.00585938 19.2936 0.00585938H4.70544ZM5.88783 3.96461C7.12738 3.96461 7.89089 4.77836 7.91446 5.84801C7.91446 6.89405 7.12733 7.73067 5.86385 7.73067H5.8406C4.62464 7.73067 3.83871 6.8941 3.83871 5.84801C3.83871 4.77838 4.64842 3.96461 5.8878 3.96461H5.88783ZM16.5697 8.96405C18.9536 8.96405 20.7407 10.5222 20.7407 13.8705V20.1213H17.1178V14.2896C17.1178 12.8242 16.5935 11.8244 15.2824 11.8244C14.2815 11.8244 13.6849 12.4982 13.423 13.1492C13.3273 13.3821 13.3038 13.7074 13.3038 14.0332V20.1213H9.68091C9.68091 20.1213 9.72845 10.2426 9.68091 9.2197H13.3045V10.7635C13.786 10.0207 14.6471 8.96403 16.5697 8.96403V8.96405ZM4.0524 9.22049H7.67527V20.1213H4.0524V9.22049Z" fill="#F9F9FF"/>
</g>
<defs>
<clipPath id="clip0_3585_588">
<rect width="24" height="24" fill="white"/>
</clipPath>
</defs>
</svg>
