<svg width="24" height="24" viewBox="0 0 24 24" fill="none" xmlns="http://www.w3.org/2000/svg">
<g clip-path="url(#clip0_3459_2149)">
<path d="M20.4489 20.4495H16.8929V14.8804C16.8929 13.5525 16.8691 11.8429 15.0434 11.8429C13.1912 11.8429 12.9078 13.2899 12.9078 14.7838V20.4491H9.35188V8.99697H12.7656V10.562H12.8134C13.1551 9.97789 13.6488 9.49736 14.2419 9.17158C14.835 8.84581 15.5054 8.687 16.1817 8.71206C19.7859 8.71206 20.4504 11.0828 20.4504 14.167L20.4489 20.4495ZM5.33938 7.43162C4.19966 7.43181 3.27557 6.508 3.27538 5.36828C3.27519 4.22856 4.19891 3.30447 5.33863 3.30428C6.47835 3.304 7.40244 4.22781 7.40263 5.36753C7.40273 5.91484 7.18541 6.43978 6.79848 6.82687C6.41155 7.21396 5.8867 7.4315 5.33938 7.43162ZM7.11744 20.4496H3.55766V8.99697H7.11735L7.11744 20.4496ZM22.2217 0.00174674H1.77079C0.804224 -0.00912826 0.0115684 0.765153 -0.000244141 1.73172V22.2679C0.0111934 23.235 0.803756 24.01 1.77069 23.9999H22.2217C23.1907 24.0119 23.9863 23.2368 23.9998 22.2679V1.73012C23.986 0.761684 23.1902 -0.0125033 22.2217 0.00015299" fill="#0A66C2"/>
</g>
<defs>
<clipPath id="clip0_3459_2149">
<rect width="24" height="24" fill="white"/>
</clipPath>
</defs>
</svg>
