<svg width="24" height="24" viewBox="0 0 24 24" fill="none" xmlns="http://www.w3.org/2000/svg">
<path d="M17.1563 3.65573L17.1563 5.30338C17.1563 5.41589 17.2055 5.52135 17.2922 5.59167C17.4914 5.75573 17.6836 5.93151 17.8664 6.11667C18.6245 6.87393 19.2286 7.77094 19.6453 8.75807C20.0773 9.78075 20.2989 10.8799 20.2969 11.9901C20.2969 13.1128 20.0766 14.2003 19.6453 15.2221C19.2286 16.2093 18.6245 17.1063 17.8664 17.8635C17.111 18.6222 16.2155 19.2271 15.2297 19.6448C14.2078 20.0784 13.1227 20.2964 12 20.2964C10.8774 20.2964 9.79222 20.076 8.77035 19.6448C7.78363 19.2276 6.89535 18.6276 6.13363 17.8635C5.37191 17.0995 4.77191 16.2112 4.35472 15.2221C3.92347 14.2003 3.70316 13.1128 3.70316 11.9901C3.70316 10.8674 3.92113 9.77995 4.35472 8.75807C4.77191 7.76901 5.37191 6.88073 6.13363 6.11667C6.31879 5.93151 6.51097 5.75807 6.70785 5.59167C6.79457 5.52135 6.84379 5.41354 6.84379 5.30338V3.65573C6.84379 3.50807 6.67972 3.41667 6.5555 3.4987C3.76175 5.29635 1.91254 8.44167 1.92191 12.0159C1.93597 17.6315 6.49457 22.1339 12.1032 22.0776C17.6227 22.0214 22.0782 17.526 22.0782 11.9901C22.0782 8.42526 20.2313 5.29401 17.4446 3.4987C17.3203 3.41901 17.1563 3.50807 17.1563 3.65573ZM11.8524 1.57214L9.22738 4.89792C9.12894 5.02213 9.218 5.2026 9.37504 5.2026H11.1563V12.562C11.1563 12.6651 11.2407 12.7495 11.3438 12.7495H12.6563C12.7594 12.7495 12.8438 12.6651 12.8438 12.562V5.2026L14.625 5.2026C14.7821 5.2026 14.8711 5.01979 14.7727 4.89792L12.1477 1.57214C12.1302 1.54972 12.1077 1.5316 12.0822 1.51914C12.0566 1.50667 12.0285 1.50019 12 1.50019C11.9716 1.50019 11.9435 1.50667 11.9179 1.51914C11.8923 1.5316 11.8699 1.54972 11.8524 1.57214Z" fill="#404753"/>
</svg>
