<svg width="586" height="132" viewBox="0 0 586 132" fill="none" xmlns="http://www.w3.org/2000/svg">
<path d="M47.0489 70.927C47.3483 70.0057 48.6517 70.0057 48.9511 70.9271L54.9599 89.4205C55.0938 89.8325 55.4778 90.1115 55.911 90.1115H75.3561C76.3249 90.1115 76.7276 91.3511 75.9439 91.9205L60.2125 103.35C59.862 103.605 59.7153 104.056 59.8492 104.468L65.8581 122.961C66.1574 123.883 65.1029 124.649 64.3192 124.08L48.5878 112.65C48.2373 112.395 47.7627 112.395 47.4122 112.65L31.6808 124.08C30.8971 124.649 29.8426 123.883 30.1419 122.961L36.1508 104.468C36.2847 104.056 36.138 103.605 35.7875 103.35L20.0561 91.9205C19.2724 91.3511 19.6752 90.1115 20.6439 90.1115H40.089C40.5222 90.1115 40.9062 89.8325 41.0401 89.4205L47.0489 70.927Z" fill="white"/>
<path fill-rule="evenodd" clip-rule="evenodd" d="M48 0H16V68L25 86H36.5L48 58L59.5 86H71L80 68V0H48Z" fill="white"/>
<mask id="path-3-inside-1_2762_345" fill="white">
<path d="M92 0H570V132H92V0Z"/>
</mask>
<path d="M96 132V0H88V132H96Z" fill="white" mask="url(#path-3-inside-1_2762_345)"/>
<path d="M141.324 27.8693H134.949C134.767 26.8239 134.432 25.8977 133.943 25.0909C133.455 24.2727 132.847 23.5795 132.119 23.0114C131.392 22.4432 130.563 22.017 129.631 21.733C128.71 21.4375 127.716 21.2898 126.648 21.2898C124.75 21.2898 123.068 21.767 121.602 22.7216C120.136 23.6648 118.989 25.0511 118.159 26.8807C117.33 28.6989 116.915 30.9205 116.915 33.5455C116.915 36.2159 117.33 38.4659 118.159 40.2955C119 42.1136 120.148 43.4886 121.602 44.4205C123.068 45.3409 124.744 45.8011 126.631 45.8011C127.676 45.8011 128.653 45.6648 129.562 45.392C130.483 45.108 131.307 44.6932 132.034 44.1477C132.773 43.6023 133.392 42.9318 133.892 42.1364C134.403 41.3409 134.756 40.4318 134.949 39.4091L141.324 39.4432C141.085 41.1023 140.568 42.6591 139.773 44.1136C138.989 45.5682 137.96 46.8523 136.688 47.9659C135.415 49.0682 133.926 49.9318 132.222 50.5568C130.517 51.1705 128.625 51.4773 126.545 51.4773C123.477 51.4773 120.739 50.767 118.33 49.3466C115.92 47.9261 114.023 45.875 112.636 43.1932C111.25 40.5114 110.557 37.2955 110.557 33.5455C110.557 29.7841 111.256 26.5682 112.653 23.8977C114.051 21.2159 115.955 19.1648 118.364 17.7443C120.773 16.3239 123.5 15.6136 126.545 15.6136C128.489 15.6136 130.295 15.8864 131.966 16.4318C133.636 16.9773 135.125 17.7784 136.432 18.8352C137.739 19.8807 138.813 21.1648 139.653 22.6875C140.506 24.1989 141.063 25.9261 141.324 27.8693ZM158.263 51.5114C155.706 51.5114 153.49 50.9489 151.615 49.8239C149.74 48.6989 148.286 47.125 147.251 45.1023C146.229 43.0795 145.717 40.7159 145.717 38.0114C145.717 35.3068 146.229 32.9375 147.251 30.9034C148.286 28.8693 149.74 27.2898 151.615 26.1648C153.49 25.0398 155.706 24.4773 158.263 24.4773C160.82 24.4773 163.036 25.0398 164.911 26.1648C166.786 27.2898 168.234 28.8693 169.257 30.9034C170.291 32.9375 170.808 35.3068 170.808 38.0114C170.808 40.7159 170.291 43.0795 169.257 45.1023C168.234 47.125 166.786 48.6989 164.911 49.8239C163.036 50.9489 160.82 51.5114 158.263 51.5114ZM158.297 46.5682C159.683 46.5682 160.842 46.1875 161.774 45.4261C162.706 44.6534 163.399 43.6193 163.854 42.3239C164.32 41.0284 164.553 39.5852 164.553 37.9943C164.553 36.392 164.32 34.9432 163.854 33.6477C163.399 32.3409 162.706 31.3011 161.774 30.5284C160.842 29.7557 159.683 29.3693 158.297 29.3693C156.876 29.3693 155.695 29.7557 154.751 30.5284C153.82 31.3011 153.121 32.3409 152.655 33.6477C152.2 34.9432 151.973 36.392 151.973 37.9943C151.973 39.5852 152.2 41.0284 152.655 42.3239C153.121 43.6193 153.82 44.6534 154.751 45.4261C155.695 46.1875 156.876 46.5682 158.297 46.5682ZM176.045 51V24.8182H182.028V29.1818H182.301C182.778 27.6705 183.597 26.5057 184.756 25.6875C185.926 24.858 187.261 24.4432 188.761 24.4432C189.102 24.4432 189.483 24.4602 189.903 24.4943C190.335 24.517 190.693 24.5568 190.977 24.6136V30.2898C190.716 30.1989 190.301 30.1193 189.733 30.0511C189.176 29.9716 188.636 29.9318 188.114 29.9318C186.989 29.9318 185.977 30.1761 185.08 30.6648C184.193 31.142 183.494 31.8068 182.983 32.6591C182.472 33.5114 182.216 34.4943 182.216 35.608V51H176.045ZM195.077 60.8182V24.8182H201.145V29.1477H201.503C201.821 28.5114 202.27 27.8352 202.849 27.1193C203.429 26.392 204.213 25.7727 205.202 25.2614C206.19 24.7386 207.452 24.4773 208.986 24.4773C211.009 24.4773 212.832 24.9943 214.457 26.0284C216.094 27.0511 217.389 28.5682 218.344 30.5795C219.31 32.5795 219.793 35.0341 219.793 37.9432C219.793 40.8182 219.321 43.2614 218.378 45.2727C217.435 47.2841 216.151 48.8182 214.526 49.875C212.901 50.9318 211.06 51.4602 209.003 51.4602C207.503 51.4602 206.259 51.2102 205.27 50.7102C204.281 50.2102 203.486 49.608 202.884 48.9034C202.293 48.1875 201.832 47.5114 201.503 46.875H201.247V60.8182H195.077ZM201.128 37.9091C201.128 39.6023 201.366 41.0852 201.844 42.358C202.332 43.6307 203.031 44.625 203.94 45.3409C204.861 46.0455 205.974 46.3977 207.281 46.3977C208.645 46.3977 209.787 46.0341 210.707 45.3068C211.628 44.5682 212.321 43.5625 212.787 42.2898C213.264 41.0057 213.503 39.5455 213.503 37.9091C213.503 36.2841 213.27 34.8409 212.804 33.5795C212.338 32.3182 211.645 31.3295 210.724 30.6136C209.804 29.8977 208.656 29.5398 207.281 29.5398C205.963 29.5398 204.844 29.8864 203.923 30.5795C203.003 31.2727 202.304 32.2443 201.827 33.4943C201.361 34.7443 201.128 36.2159 201.128 37.9091ZM225.349 51V16.0909H238.44C241.122 16.0909 243.372 16.5568 245.19 17.4886C247.02 18.4205 248.401 19.7273 249.332 21.4091C250.276 23.0795 250.747 25.0284 250.747 27.2557C250.747 29.4943 250.27 31.4375 249.315 33.0852C248.372 34.7216 246.98 35.9886 245.139 36.8864C243.298 37.7727 241.037 38.2159 238.355 38.2159H229.031V32.9659H237.503C239.071 32.9659 240.355 32.75 241.355 32.3182C242.355 31.875 243.094 31.233 243.571 30.392C244.06 29.5398 244.304 28.4943 244.304 27.2557C244.304 26.017 244.06 24.9602 243.571 24.0852C243.082 23.1989 242.338 22.5284 241.338 22.0739C240.338 21.608 239.048 21.375 237.469 21.375H231.673V51H225.349ZM243.384 35.1818L252.026 51H244.969L236.48 35.1818H243.384ZM263.83 51.5284C262.17 51.5284 260.676 51.233 259.347 50.642C258.028 50.0398 256.983 49.1534 256.21 47.983C255.449 46.8125 255.068 45.3693 255.068 43.6534C255.068 42.1761 255.341 40.9545 255.886 39.9886C256.432 39.0227 257.176 38.25 258.119 37.6705C259.063 37.0909 260.125 36.6534 261.307 36.358C262.5 36.0511 263.733 35.8295 265.006 35.6932C266.54 35.5341 267.784 35.392 268.739 35.267C269.693 35.1307 270.386 34.9261 270.818 34.6534C271.261 34.3693 271.483 33.9318 271.483 33.3409V33.2386C271.483 31.9545 271.102 30.9602 270.341 30.2557C269.58 29.5511 268.483 29.1989 267.051 29.1989C265.54 29.1989 264.341 29.5284 263.455 30.1875C262.58 30.8466 261.989 31.625 261.682 32.5227L255.92 31.7045C256.375 30.1136 257.125 28.7841 258.17 27.7159C259.216 26.6364 260.494 25.8295 262.006 25.2955C263.517 24.75 265.188 24.4773 267.017 24.4773C268.278 24.4773 269.534 24.625 270.784 24.9205C272.034 25.2159 273.176 25.7045 274.21 26.3864C275.244 27.0568 276.074 27.9716 276.699 29.1307C277.335 30.2898 277.653 31.7386 277.653 33.4773V51H271.722V47.4034H271.517C271.142 48.1307 270.614 48.8125 269.932 49.4489C269.261 50.0739 268.415 50.5795 267.392 50.9659C266.381 51.3409 265.193 51.5284 263.83 51.5284ZM265.432 46.9943C266.67 46.9943 267.744 46.75 268.653 46.2614C269.563 45.7614 270.261 45.1023 270.75 44.2841C271.25 43.4659 271.5 42.5739 271.5 41.608V38.5227C271.307 38.6818 270.977 38.8295 270.511 38.9659C270.057 39.1023 269.545 39.2216 268.977 39.3239C268.409 39.4261 267.847 39.517 267.29 39.5966C266.733 39.6761 266.25 39.7443 265.841 39.8011C264.92 39.9261 264.097 40.1307 263.369 40.4148C262.642 40.6989 262.068 41.0966 261.648 41.608C261.227 42.108 261.017 42.7557 261.017 43.5511C261.017 44.6875 261.432 45.5455 262.261 46.125C263.091 46.7045 264.148 46.9943 265.432 46.9943ZM290.028 35.6591V51H283.858V24.8182H289.756V29.267H290.062C290.665 27.8011 291.625 26.6364 292.943 25.7727C294.273 24.9091 295.915 24.4773 297.869 24.4773C299.676 24.4773 301.25 24.8636 302.591 25.6364C303.943 26.4091 304.989 27.5284 305.727 28.9943C306.477 30.4602 306.847 32.2386 306.835 34.3295V51H300.665V35.2841C300.665 33.5341 300.21 32.1648 299.301 31.1761C298.403 30.1875 297.159 29.6932 295.568 29.6932C294.489 29.6932 293.528 29.9318 292.688 30.4091C291.858 30.875 291.205 31.5511 290.727 32.4375C290.261 33.3239 290.028 34.3977 290.028 35.6591ZM318.733 42.7841L318.716 35.3352H319.705L329.114 24.8182H336.324L324.75 37.7045H323.472L318.733 42.7841ZM313.108 51V16.0909H319.278V51H313.108ZM329.54 51L321.017 39.0852L325.176 34.7386L336.92 51H329.54ZM357.098 51H350.348L362.638 16.0909H370.445L382.751 51H376.001L366.678 23.25H366.405L357.098 51ZM357.32 37.3125H375.729V42.392H357.32V37.3125ZM395.996 51.4602C393.939 51.4602 392.098 50.9318 390.473 49.875C388.848 48.8182 387.564 47.2841 386.621 45.2727C385.678 43.2614 385.206 40.8182 385.206 37.9432C385.206 35.0341 385.683 32.5795 386.638 30.5795C387.604 28.5682 388.905 27.0511 390.541 26.0284C392.178 24.9943 394.001 24.4773 396.013 24.4773C397.547 24.4773 398.808 24.7386 399.797 25.2614C400.786 25.7727 401.57 26.392 402.149 27.1193C402.729 27.8352 403.178 28.5114 403.496 29.1477H403.751V16.0909H409.939V51H403.871V46.875H403.496C403.178 47.5114 402.717 48.1875 402.115 48.9034C401.513 49.608 400.717 50.2102 399.729 50.7102C398.74 51.2102 397.496 51.4602 395.996 51.4602ZM397.717 46.3977C399.024 46.3977 400.138 46.0455 401.058 45.3409C401.979 44.625 402.678 43.6307 403.155 42.358C403.632 41.0852 403.871 39.6023 403.871 37.9091C403.871 36.2159 403.632 34.7443 403.155 33.4943C402.689 32.2443 401.996 31.2727 401.075 30.5795C400.166 29.8864 399.047 29.5398 397.717 29.5398C396.342 29.5398 395.195 29.8977 394.274 30.6136C393.354 31.3295 392.661 32.3182 392.195 33.5795C391.729 34.8409 391.496 36.2841 391.496 37.9091C391.496 39.5455 391.729 41.0057 392.195 42.2898C392.672 43.5625 393.371 44.5682 394.291 45.3068C395.223 46.0341 396.365 46.3977 397.717 46.3977ZM439.901 24.8182L430.577 51H423.759L414.435 24.8182H421.014L427.031 44.267H427.304L433.338 24.8182H439.901ZM444.17 51V24.8182H450.341V51H444.17ZM447.273 21.1023C446.295 21.1023 445.455 20.7784 444.75 20.1307C444.045 19.4716 443.693 18.6818 443.693 17.7614C443.693 16.8295 444.045 16.0398 444.75 15.392C445.455 14.733 446.295 14.4034 447.273 14.4034C448.261 14.4034 449.102 14.733 449.795 15.392C450.5 16.0398 450.852 16.8295 450.852 17.7614C450.852 18.6818 450.5 19.4716 449.795 20.1307C449.102 20.7784 448.261 21.1023 447.273 21.1023ZM468.107 51.5114C465.493 51.5114 463.249 50.9375 461.374 49.7898C459.51 48.642 458.072 47.0568 457.061 45.0341C456.061 43 455.561 40.6591 455.561 38.0114C455.561 35.3523 456.072 33.0057 457.095 30.9716C458.118 28.9261 459.561 27.3352 461.425 26.1989C463.3 25.0511 465.516 24.4773 468.072 24.4773C470.197 24.4773 472.078 24.8693 473.714 25.6534C475.362 26.4261 476.675 27.5227 477.652 28.9432C478.629 30.3523 479.186 32 479.322 33.8864H473.425C473.186 32.625 472.618 31.5739 471.72 30.733C470.834 29.8807 469.646 29.4545 468.158 29.4545C466.896 29.4545 465.788 29.7955 464.834 30.4773C463.879 31.1477 463.135 32.1136 462.601 33.375C462.078 34.6364 461.817 36.1477 461.817 37.9091C461.817 39.6932 462.078 41.2273 462.601 42.5114C463.124 43.7841 463.857 44.767 464.8 45.4602C465.754 46.142 466.874 46.483 468.158 46.483C469.067 46.483 469.879 46.3125 470.595 45.9716C471.322 45.6193 471.93 45.1136 472.419 44.4545C472.908 43.7955 473.243 42.9943 473.425 42.0511H479.322C479.175 43.9034 478.629 45.5455 477.686 46.9773C476.743 48.3977 475.459 49.5114 473.834 50.3182C472.209 51.1136 470.3 51.5114 468.107 51.5114ZM495.98 51.5114C493.355 51.5114 491.088 50.9659 489.179 49.875C487.281 48.7727 485.821 47.2159 484.798 45.2045C483.776 43.1818 483.264 40.8011 483.264 38.0625C483.264 35.3693 483.776 33.0057 484.798 30.9716C485.832 28.9261 487.276 27.3352 489.128 26.1989C490.98 25.0511 493.156 24.4773 495.656 24.4773C497.27 24.4773 498.793 24.7386 500.224 25.2614C501.668 25.7727 502.94 26.5682 504.043 27.6477C505.156 28.7273 506.031 30.1023 506.668 31.7727C507.304 33.4318 507.622 35.4091 507.622 37.7045V39.5966H486.162V35.4375H501.707C501.696 34.2557 501.44 33.2045 500.94 32.2841C500.44 31.3523 499.741 30.6193 498.844 30.0852C497.957 29.5511 496.923 29.2841 495.741 29.2841C494.48 29.2841 493.372 29.5909 492.418 30.2045C491.463 30.8068 490.719 31.6023 490.185 32.5909C489.662 33.5682 489.395 34.642 489.384 35.8125V39.4432C489.384 40.9659 489.662 42.2727 490.219 43.3636C490.776 44.4432 491.554 45.2727 492.554 45.8523C493.554 46.4205 494.724 46.7045 496.065 46.7045C496.963 46.7045 497.776 46.5795 498.503 46.3295C499.23 46.0682 499.861 45.6875 500.395 45.1875C500.929 44.6875 501.332 44.0682 501.605 43.3295L507.366 43.9773C507.003 45.5 506.31 46.8295 505.287 47.9659C504.276 49.0909 502.98 49.9659 501.401 50.5909C499.821 51.2045 498.014 51.5114 495.98 51.5114ZM535.18 51.5114C532.794 51.5114 530.743 51.0795 529.027 50.2159C527.311 49.3523 525.987 48.1875 525.055 46.7216C524.135 45.2443 523.675 43.5795 523.675 41.7273C523.675 40.3295 523.959 39.0909 524.527 38.0114C525.107 36.9318 525.902 35.9318 526.913 35.0114C527.936 34.0909 529.118 33.1761 530.459 32.267L536.646 28.0568C537.555 27.4659 538.243 26.8409 538.709 26.1818C539.186 25.5227 539.425 24.75 539.425 23.8636C539.425 23.1136 539.107 22.4034 538.47 21.733C537.845 21.0625 536.982 20.7273 535.879 20.7273C535.141 20.7273 534.487 20.9034 533.919 21.2557C533.362 21.5966 532.925 22.0455 532.607 22.6023C532.3 23.1591 532.146 23.75 532.146 24.375C532.146 25.1364 532.357 25.9091 532.777 26.6932C533.209 27.4773 533.766 28.2898 534.447 29.1307C535.141 29.9716 535.879 30.8636 536.663 31.8068L553.044 51H546.362L532.76 35.4205C531.749 34.2386 530.771 33.0739 529.828 31.9261C528.896 30.7784 528.129 29.5852 527.527 28.3466C526.936 27.0966 526.641 25.7443 526.641 24.2898C526.641 22.642 527.021 21.1705 527.783 19.875C528.544 18.5682 529.607 17.5398 530.97 16.7898C532.345 16.0398 533.953 15.6648 535.794 15.6648C537.635 15.6648 539.214 16.0284 540.533 16.7557C541.851 17.483 542.868 18.4489 543.584 19.6534C544.3 20.858 544.658 22.1705 544.658 23.5909C544.658 25.2386 544.249 26.7159 543.43 28.0227C542.612 29.3182 541.476 30.4943 540.021 31.5511L532.964 36.7159C531.805 37.5568 530.976 38.4091 530.476 39.2727C529.976 40.125 529.726 40.8523 529.726 41.4545C529.726 42.375 529.959 43.2102 530.425 43.9602C530.891 44.7102 531.544 45.3125 532.385 45.767C533.237 46.2102 534.232 46.4318 535.368 46.4318C536.618 46.4318 537.851 46.1534 539.067 45.5966C540.283 45.0284 541.391 44.2216 542.391 43.1761C543.391 42.1307 544.186 40.8807 544.777 39.4261C545.368 37.9602 545.663 36.3352 545.663 34.5511H550.964C550.964 36.7557 550.72 38.6761 550.232 40.3125C549.743 41.9375 549.112 43.3125 548.339 44.4375C547.567 45.5511 546.749 46.4432 545.885 47.1136C545.612 47.3068 545.351 47.5 545.101 47.6932C544.851 47.8864 544.589 48.0795 544.317 48.2727C543.089 49.3864 541.652 50.2045 540.004 50.7273C538.368 51.25 536.76 51.5114 535.18 51.5114ZM115.926 115H109.176L121.466 80.0909H129.273L141.58 115H134.83L125.506 87.25H125.233L115.926 115ZM116.148 101.312H134.557V106.392H116.148V101.312ZM162.592 103.989V88.8182H168.763V115H162.78V110.347H162.507C161.916 111.812 160.945 113.011 159.592 113.943C158.251 114.875 156.598 115.341 154.632 115.341C152.916 115.341 151.399 114.96 150.081 114.199C148.774 113.426 147.751 112.307 147.013 110.841C146.274 109.364 145.905 107.58 145.905 105.489V88.8182H152.075V104.534C152.075 106.193 152.53 107.511 153.439 108.489C154.348 109.466 155.541 109.955 157.018 109.955C157.928 109.955 158.808 109.733 159.661 109.29C160.513 108.847 161.212 108.188 161.757 107.312C162.314 106.426 162.592 105.318 162.592 103.989ZM184.824 115.46C182.767 115.46 180.926 114.932 179.301 113.875C177.676 112.818 176.392 111.284 175.449 109.273C174.506 107.261 174.034 104.818 174.034 101.943C174.034 99.0341 174.511 96.5795 175.466 94.5795C176.432 92.5682 177.733 91.0511 179.369 90.0284C181.006 88.9943 182.83 88.4773 184.841 88.4773C186.375 88.4773 187.636 88.7386 188.625 89.2614C189.614 89.7727 190.398 90.392 190.977 91.1193C191.557 91.8352 192.006 92.5114 192.324 93.1477H192.58V80.0909H198.767V115H192.699V110.875H192.324C192.006 111.511 191.545 112.187 190.943 112.903C190.341 113.608 189.545 114.21 188.557 114.71C187.568 115.21 186.324 115.46 184.824 115.46ZM186.545 110.398C187.852 110.398 188.966 110.045 189.886 109.341C190.807 108.625 191.506 107.631 191.983 106.358C192.46 105.085 192.699 103.602 192.699 101.909C192.699 100.216 192.46 98.7443 191.983 97.4943C191.517 96.2443 190.824 95.2727 189.903 94.5795C188.994 93.8864 187.875 93.5398 186.545 93.5398C185.17 93.5398 184.023 93.8977 183.102 94.6136C182.182 95.3295 181.489 96.3182 181.023 97.5795C180.557 98.8409 180.324 100.284 180.324 101.909C180.324 103.545 180.557 105.006 181.023 106.29C181.5 107.562 182.199 108.568 183.119 109.307C184.051 110.034 185.193 110.398 186.545 110.398ZM205.342 115V88.8182H211.513V115H205.342ZM208.445 85.1023C207.467 85.1023 206.626 84.7784 205.922 84.1307C205.217 83.4716 204.865 82.6818 204.865 81.7614C204.865 80.8295 205.217 80.0398 205.922 79.392C206.626 78.733 207.467 78.4034 208.445 78.4034C209.433 78.4034 210.274 78.733 210.967 79.392C211.672 80.0398 212.024 80.8295 212.024 81.7614C212.024 82.6818 211.672 83.4716 210.967 84.1307C210.274 84.7784 209.433 85.1023 208.445 85.1023ZM230.932 88.8182V93.5909H215.881V88.8182H230.932ZM219.597 82.5455H225.767V107.125C225.767 107.955 225.892 108.591 226.142 109.034C226.403 109.466 226.744 109.761 227.165 109.92C227.585 110.08 228.051 110.159 228.562 110.159C228.949 110.159 229.301 110.131 229.619 110.074C229.949 110.017 230.199 109.966 230.369 109.92L231.409 114.744C231.08 114.858 230.608 114.983 229.994 115.119C229.392 115.256 228.653 115.335 227.778 115.358C226.233 115.403 224.841 115.17 223.602 114.659C222.364 114.136 221.381 113.33 220.653 112.239C219.938 111.148 219.585 109.784 219.597 108.148V82.5455ZM248.271 115V80.0909H261.635C264.158 80.0909 266.254 80.4886 267.925 81.2841C269.607 82.0682 270.862 83.142 271.692 84.5057C272.533 85.8693 272.953 87.4148 272.953 89.142C272.953 90.5625 272.68 91.7784 272.135 92.7898C271.589 93.7898 270.857 94.6023 269.936 95.2273C269.016 95.8523 267.987 96.3011 266.851 96.5739V96.9148C268.089 96.983 269.277 97.3636 270.413 98.0568C271.561 98.7386 272.499 99.7045 273.226 100.955C273.953 102.205 274.317 103.716 274.317 105.489C274.317 107.295 273.879 108.92 273.004 110.364C272.129 111.795 270.811 112.926 269.05 113.756C267.288 114.585 265.072 115 262.402 115H248.271ZM254.595 109.716H261.396C263.692 109.716 265.345 109.278 266.357 108.403C267.379 107.517 267.891 106.381 267.891 104.994C267.891 103.96 267.635 103.028 267.124 102.199C266.612 101.358 265.885 100.699 264.942 100.222C263.999 99.733 262.874 99.4886 261.567 99.4886H254.595V109.716ZM254.595 94.9375H260.851C261.942 94.9375 262.925 94.7386 263.8 94.3409C264.675 93.9318 265.362 93.358 265.862 92.6193C266.374 91.8693 266.629 90.983 266.629 89.9602C266.629 88.608 266.152 87.4943 265.197 86.6193C264.254 85.7443 262.851 85.3068 260.987 85.3068H254.595V94.9375ZM290.966 115.511C288.409 115.511 286.193 114.949 284.318 113.824C282.443 112.699 280.989 111.125 279.955 109.102C278.932 107.08 278.42 104.716 278.42 102.011C278.42 99.3068 278.932 96.9375 279.955 94.9034C280.989 92.8693 282.443 91.2898 284.318 90.1648C286.193 89.0398 288.409 88.4773 290.966 88.4773C293.523 88.4773 295.739 89.0398 297.614 90.1648C299.489 91.2898 300.938 92.8693 301.96 94.9034C302.994 96.9375 303.511 99.3068 303.511 102.011C303.511 104.716 302.994 107.08 301.96 109.102C300.938 111.125 299.489 112.699 297.614 113.824C295.739 114.949 293.523 115.511 290.966 115.511ZM291 110.568C292.386 110.568 293.545 110.187 294.477 109.426C295.409 108.653 296.102 107.619 296.557 106.324C297.023 105.028 297.256 103.585 297.256 101.994C297.256 100.392 297.023 98.9432 296.557 97.6477C296.102 96.3409 295.409 95.3011 294.477 94.5284C293.545 93.7557 292.386 93.3693 291 93.3693C289.58 93.3693 288.398 93.7557 287.455 94.5284C286.523 95.3011 285.824 96.3409 285.358 97.6477C284.903 98.9432 284.676 100.392 284.676 101.994C284.676 103.585 284.903 105.028 285.358 106.324C285.824 107.619 286.523 108.653 287.455 109.426C288.398 110.187 289.58 110.568 291 110.568ZM318.464 115.46C316.408 115.46 314.567 114.932 312.942 113.875C311.317 112.818 310.033 111.284 309.089 109.273C308.146 107.261 307.675 104.818 307.675 101.943C307.675 99.0341 308.152 96.5795 309.107 94.5795C310.072 92.5682 311.374 91.0511 313.01 90.0284C314.646 88.9943 316.47 88.4773 318.482 88.4773C320.016 88.4773 321.277 88.7386 322.266 89.2614C323.254 89.7727 324.038 90.392 324.618 91.1193C325.197 91.8352 325.646 92.5114 325.964 93.1477H326.22V80.0909H332.408V115H326.339V110.875H325.964C325.646 111.511 325.186 112.187 324.584 112.903C323.982 113.608 323.186 114.21 322.197 114.71C321.209 115.21 319.964 115.46 318.464 115.46ZM320.186 110.398C321.493 110.398 322.607 110.045 323.527 109.341C324.447 108.625 325.146 107.631 325.624 106.358C326.101 105.085 326.339 103.602 326.339 101.909C326.339 100.216 326.101 98.7443 325.624 97.4943C325.158 96.2443 324.464 95.2727 323.544 94.5795C322.635 93.8864 321.516 93.5398 320.186 93.5398C318.811 93.5398 317.663 93.8977 316.743 94.6136C315.822 95.3295 315.129 96.3182 314.663 97.5795C314.197 98.8409 313.964 100.284 313.964 101.909C313.964 103.545 314.197 105.006 314.663 106.29C315.141 107.562 315.839 108.568 316.76 109.307C317.692 110.034 318.834 110.398 320.186 110.398ZM342.818 124.818C341.977 124.818 341.199 124.75 340.483 124.614C339.778 124.489 339.216 124.341 338.795 124.17L340.227 119.364C341.125 119.625 341.926 119.75 342.631 119.739C343.335 119.727 343.955 119.506 344.489 119.074C345.034 118.653 345.494 117.949 345.869 116.96L346.398 115.545L336.903 88.8182H343.449L349.483 108.591H349.756L355.807 88.8182H362.369L351.886 118.17C351.398 119.557 350.75 120.744 349.943 121.733C349.136 122.733 348.148 123.494 346.977 124.017C345.818 124.551 344.432 124.818 342.818 124.818Z" fill="white"/>
</svg>
