<svg width="33" height="66" viewBox="0 0 33 66" fill="none" xmlns="http://www.w3.org/2000/svg">
<path d="M16.2228 35.8295C16.3706 35.3748 17.0139 35.3748 17.1617 35.8295L20.1276 44.9576C20.1937 45.161 20.3832 45.2987 20.597 45.2987H30.1949C30.673 45.2987 30.8718 45.9105 30.485 46.1916L22.7202 51.8331C22.5472 51.9588 22.4748 52.1816 22.5408 52.3849L25.5068 61.513C25.6545 61.9678 25.134 62.3459 24.7472 62.0649L16.9824 56.4234C16.8094 56.2977 16.5751 56.2977 16.4021 56.4234L8.63728 62.0649C8.25045 62.3459 7.72998 61.9678 7.87773 61.513L10.8436 52.3849C10.9097 52.1816 10.8373 51.9588 10.6643 51.8331L2.89949 46.1916C2.51266 45.9105 2.71147 45.2987 3.18962 45.2987H12.7875C13.0013 45.2987 13.1908 45.161 13.2569 44.9576L16.2228 35.8295Z" fill="white"/>
<path fill-rule="evenodd" clip-rule="evenodd" d="M16.6922 0.820801H0.897461V34.3847L5.33974 43.2693H11.016L16.6922 29.4489L22.3685 43.2694H28.0447L32.487 34.3848V0.820899H16.6922V0.820801Z" fill="white"/>
</svg>
