<svg width="56" height="56" viewBox="0 0 56 56" fill="none" xmlns="http://www.w3.org/2000/svg">
<rect width="56" height="56" rx="28" fill="#314364"/>
<path d="M43 28V35.5H13V15.5H21.75V13H13C12.337 13 11.7011 13.2634 11.2322 13.7322C10.7634 14.2011 10.5 14.837 10.5 15.5V35.5C10.5 36.163 10.7634 36.7989 11.2322 37.2678C11.7011 37.7366 12.337 38 13 38H23V43H18V45.5H38V43H33V38H43C43.663 38 44.2989 37.7366 44.7678 37.2678C45.2366 36.7989 45.5 36.163 45.5 35.5V28H43ZM30.5 43H25.5V38H30.5V43Z" fill="#CBDBFF"/>
<path d="M30.5 30.5001H30.4875C30.2182 30.4973 29.9569 30.4076 29.7427 30.2443C29.5285 30.081 29.3728 29.8529 29.2987 29.5939L27.0575 21.7501H21.75V19.2501H28C28.2717 19.25 28.536 19.3384 28.753 19.5019C28.97 19.6654 29.1278 19.8952 29.2025 20.1564L30.545 24.8564L34.3062 12.6314C34.3867 12.3773 34.5456 12.1552 34.76 11.9969C34.9744 11.8386 35.2335 11.7522 35.5 11.7501C35.7634 11.7462 36.021 11.8272 36.2347 11.9812C36.4484 12.1352 36.6067 12.354 36.6862 12.6051L38.9 19.2501H45.5V21.7501H38C37.7375 21.7502 37.4817 21.6677 37.2688 21.5142C37.0559 21.3607 36.8967 21.1441 36.8138 20.8951L35.5475 17.0951L31.695 29.6176C31.6164 29.8732 31.4579 30.0968 31.2428 30.2557C31.0277 30.4145 30.7674 30.5002 30.5 30.5001Z" fill="#CBDBFF"/>
</svg>
