<svg width="56" height="56" viewBox="0 0 56 56" fill="none" xmlns="http://www.w3.org/2000/svg">
<rect width="56" height="56" rx="28" fill="#406926"/>
<path d="M44.1836 22.5174C46.267 20.4341 45.317 18.0008 44.1836 16.8174L39.1836 11.8174C37.0836 9.73411 34.667 10.6841 33.4836 11.8174L30.6503 14.6674H26.3336C23.167 14.6674 21.3336 16.3341 20.4003 18.2508L13.0003 25.6508V32.3174L11.817 33.4841C9.73362 35.5841 10.6836 38.0008 11.817 39.1841L16.817 44.1841C17.717 45.0841 18.6836 45.4174 19.6003 45.4174C20.7836 45.4174 21.867 44.8341 22.517 44.1841L27.017 39.6674H33.0003C35.8336 39.6674 37.267 37.9008 37.7836 36.1674C39.667 35.6674 40.7003 34.2341 41.117 32.8341C43.7003 32.1674 44.667 29.7174 44.667 28.0008V23.0008H43.6836L44.1836 22.5174ZM41.3336 28.0008C41.3336 28.7508 41.017 29.6674 39.667 29.6674H38.0003V31.3341C38.0003 32.0841 37.6836 33.0008 36.3336 33.0008H34.667V34.6674C34.667 35.4174 34.3503 36.3341 33.0003 36.3341H25.6503L20.1836 41.8008C19.667 42.2841 19.367 42.0008 19.1836 41.8174L14.2003 36.8508C13.717 36.3341 14.0003 36.0341 14.1836 35.8508L16.3336 33.6841V27.0174L19.667 23.6841V26.3341C19.667 28.3508 21.0003 31.3341 24.667 31.3341C28.3336 31.3341 29.667 28.3508 29.667 26.3341H41.3336V28.0008ZM41.817 20.1508L38.9836 23.0008H26.3336V26.3341C26.3336 27.0841 26.017 28.0008 24.667 28.0008C23.317 28.0008 23.0003 27.0841 23.0003 26.3341V21.3341C23.0003 20.5674 23.2836 18.0008 26.3336 18.0008H32.017L35.817 14.2008C36.3336 13.7174 36.6336 14.0008 36.817 14.1841L41.8003 19.1508C42.2836 19.6674 42.0003 19.9674 41.817 20.1508Z" fill="white"/>
</svg>
