<svg width="56" height="56" viewBox="0 0 56 56" fill="none" xmlns="http://www.w3.org/2000/svg">
<rect width="56" height="56" rx="28" fill="#314364"/>
<path fill-rule="evenodd" clip-rule="evenodd" d="M36.125 10.5C36.6223 10.5 37.0992 10.6975 37.4508 11.0492C37.8025 11.4008 38 11.8777 38 12.375V15.5H43C43.663 15.5 44.2989 15.7634 44.7678 16.2322C45.2366 16.7011 45.5 17.337 45.5 18V43C45.5 43.663 45.2366 44.2989 44.7678 44.7678C44.2989 45.2366 43.663 45.5 43 45.5H13C12.337 45.5 11.7011 45.2366 11.2322 44.7678C10.7634 44.2989 10.5 43.663 10.5 43V18C10.5 17.337 10.7634 16.7011 11.2322 16.2322C11.7011 15.7634 12.337 15.5 13 15.5H18V12.375C18 11.8777 18.1975 11.4008 18.5492 11.0492C18.9008 10.6975 19.3777 10.5 19.875 10.5C20.3723 10.5 20.8492 10.6975 21.2008 11.0492C21.5525 11.4008 21.75 11.8777 21.75 12.375V15.5H34.25V12.375C34.25 11.8777 34.4475 11.4008 34.7992 11.0492C35.1508 10.6975 35.6277 10.5 36.125 10.5ZM14.25 26.75V41.75H41.75V26.75H14.25ZM14.25 23H41.75V19.25H14.25V23ZM33.7 30.425C34.0511 30.7766 34.2484 31.2531 34.2484 31.75C34.2484 32.2469 34.0511 32.7234 33.7 33.075L28.075 38.7C27.7234 39.0511 27.2469 39.2484 26.75 39.2484C26.2531 39.2484 25.7766 39.0511 25.425 38.7L22.3 35.575C22.1158 35.4033 21.968 35.1963 21.8655 34.9663C21.7631 34.7363 21.708 34.4881 21.7035 34.2363C21.6991 33.9845 21.7454 33.7345 21.8397 33.501C21.934 33.2675 22.0744 33.0555 22.2524 32.8774C22.4305 32.6994 22.6425 32.559 22.876 32.4647C23.1095 32.3704 23.3595 32.3241 23.6113 32.3285C23.8631 32.333 24.1113 32.3881 24.3413 32.4905C24.5713 32.593 24.7783 32.7408 24.95 32.925L26.75 34.725L31.05 30.425C31.4016 30.0739 31.8781 29.8766 32.375 29.8766C32.8719 29.8766 33.3484 30.0739 33.7 30.425Z" fill="#CBDBFF"/>
</svg>
