<svg width="56" height="56" viewBox="0 0 56 56" fill="none" xmlns="http://www.w3.org/2000/svg">
<rect width="56" height="56" rx="28" fill="#406926"/>
<g clip-path="url(#clip0_3523_757)">
<path d="M8 24.3439C7.99754 20.7587 9.21115 17.2785 11.4425 14.4723C13.6739 11.666 16.7911 9.69953 20.2848 8.89417C23.7784 8.08881 27.442 8.4922 30.6767 10.0384C33.9114 11.5846 36.526 14.1823 38.0934 17.4068C40.3621 18.5128 42.3337 20.1448 43.8442 22.1669C45.3546 24.189 46.3601 26.5427 46.7769 29.0319C47.1937 31.5212 47.0098 34.0741 46.2404 36.4779C45.4711 38.8817 44.1386 41.0669 42.3539 42.8516C40.5692 44.6363 38.384 45.9688 35.9801 46.7382C33.5763 47.5075 31.0235 47.6914 28.5342 47.2746C26.0449 46.8578 23.6912 45.8523 21.6691 44.3419C19.647 42.8315 18.0151 40.8598 16.9091 38.5911C14.2375 37.2906 11.9856 35.2651 10.4102 32.7459C8.83488 30.2266 7.99969 27.3152 8 24.3439ZM20.5385 39.8416C21.7021 41.3507 23.1742 42.5944 24.8564 43.4897C26.5386 44.3851 28.3924 44.9115 30.2941 45.0339C32.1958 45.1563 34.1018 44.8719 35.8849 44.1995C37.668 43.5272 39.2873 42.4825 40.6348 41.135C41.9823 39.7875 43.027 38.1682 43.6994 36.3851C44.3717 34.602 44.6561 32.696 44.5337 30.7943C44.4113 28.8925 43.8849 27.0388 42.9896 25.3566C42.0942 23.6743 40.8505 22.2023 39.3414 21.0387C39.8933 23.6235 39.7898 26.3053 39.0403 28.8399C38.2908 31.3745 36.9191 33.6813 35.0501 35.5503C33.1812 37.4192 30.8744 38.7909 28.3398 39.5404C25.8052 40.29 23.1233 40.3935 20.5385 39.8416ZM18.7518 36.7484C19.6391 37.1156 20.5686 37.3837 21.5403 37.5527L17.9474 33.9599C18.1164 34.93 18.3846 35.8595 18.7518 36.7484ZM25.1234 37.6892C26.0951 37.5973 27.0539 37.3995 27.9826 37.0994L18.6616 27.7808C18.3339 28.6638 18.0923 29.5764 17.9401 30.5059L25.1234 37.6892ZM30.3811 36.0512C31.1059 35.645 31.7868 35.177 32.4238 34.6472L21.2064 23.4323C20.6735 24.0619 20.1949 24.7354 19.7756 25.4457L30.3811 36.0512ZM34.1471 32.9215C34.6752 32.2877 35.1432 31.6077 35.5511 30.8813L24.9479 20.2733C24.2368 20.6925 23.5625 21.1711 22.9321 21.7041L34.1446 32.9215H34.1471ZM36.5992 28.4804C36.8966 27.5671 37.0932 26.6149 37.1891 25.6236L30.0058 18.4403C29.0633 18.5963 28.1549 18.8368 27.2806 19.1618L36.5992 28.4828V28.4804ZM37.0526 22.0405C36.8861 21.0846 36.6164 20.1496 36.2482 19.252C35.3505 18.8838 34.4156 18.614 33.4597 18.4476L37.0526 22.0405Z" fill="white"/>
</g>
<defs>
<clipPath id="clip0_3523_757">
<rect width="39" height="39" fill="white" transform="translate(8 8.5)"/>
</clipPath>
</defs>
</svg>
