<svg width="24" height="24" viewBox="0 0 24 24" fill="none" xmlns="http://www.w3.org/2000/svg">
<path d="M3.42857 1.50098C1.5375 1.50098 0 2.84629 0 4.50098V19.501C0 21.1557 1.5375 22.501 3.42857 22.501H20.5714C22.4625 22.501 24 21.1557 24 19.501V4.50098C24 2.84629 22.4625 1.50098 20.5714 1.50098H3.42857ZM19.3446 5.43848L13.7839 10.9979L20.325 18.5635H15.2036L11.1964 13.9744L6.60536 18.5635H4.06071L10.0071 12.615L3.73393 5.43848H8.98393L12.6107 9.63379L16.8 5.43848H19.3446ZM17.3196 17.2322L8.21786 6.69941H6.70179L15.9054 17.2322H17.3143H17.3196Z" fill="black"/>
</svg>
