<svg width="33" height="29" viewBox="0 0 33 29" fill="none" xmlns="http://www.w3.org/2000/svg">
<path d="M30.6667 14.8327L33 17.1827L22.1167 28.166L16.3333 22.3327L18.6667 19.9827L22.1167 23.4493L30.6667 14.8327ZM12.1667 22.3327L17.1667 27.3327H0.5V23.9993C0.5 20.316 6.46667 17.3327 13.8333 17.3327L16.9833 17.516L12.1667 22.3327ZM13.8333 0.666016C15.6014 0.666016 17.2971 1.36839 18.5474 2.61864C19.7976 3.86888 20.5 5.56457 20.5 7.33268C20.5 9.10079 19.7976 10.7965 18.5474 12.0467C17.2971 13.297 15.6014 13.9993 13.8333 13.9993C12.0652 13.9993 10.3695 13.297 9.11929 12.0467C7.86905 10.7965 7.16667 9.10079 7.16667 7.33268C7.16667 5.56457 7.86905 3.86888 9.11929 2.61864C10.3695 1.36839 12.0652 0.666016 13.8333 0.666016Z" fill="#68E054"/>
</svg>
